<svg width="109" height="66" viewBox="0 0 119 118" fill="none" xmlns="http://www.w3.org/2000/svg">
<path fill-rule="evenodd" clip-rule="evenodd" d="M8 7H111V110H8V7Z" fill="white"/>
<path fill-rule="evenodd" clip-rule="evenodd" d="M5.69359 108.783H5.35628C5.35628 108.614 5.2718 108.361 5.2718 108.276C5.2718 108.192 5.2718 108.023 5.01836 108.023H4.51148V108.783H4.25804V107.01H5.01836C5.35628 107.01 5.60911 107.095 5.60911 107.431C5.60911 107.685 5.52463 107.77 5.44076 107.853C5.52524 107.938 5.60911 108.023 5.60911 108.192V108.529C5.60911 108.614 5.60911 108.614 5.69359 108.614V108.783ZM5.35628 107.517C5.35628 107.263 5.18732 107.263 5.10284 107.263H4.51148V107.77H5.01836C5.18732 107.77 5.35628 107.685 5.35628 107.517ZM6.79182 107.854C6.79182 106.841 5.94764 105.996 4.8494 105.996C3.83625 105.996 2.99146 106.841 2.99146 107.854C2.99146 108.951 3.83625 109.797 4.8494 109.797C5.94703 109.796 6.79182 108.951 6.79182 107.854ZM6.53838 107.854C6.53838 108.783 5.77868 109.458 4.8494 109.458C3.92012 109.458 3.24489 108.783 3.24489 107.854C3.24489 107.01 3.92073 106.249 4.8494 106.249C5.77807 106.249 6.53838 107.01 6.53838 107.854ZM110.58 73.7368C110.58 76.2706 108.975 77.4515 106.103 77.4515H100.615V74.9177H106.103C106.61 74.9177 107.033 74.8339 107.202 74.6655C107.371 74.4959 107.54 74.2425 107.54 73.9052C107.54 73.5667 107.371 73.2293 107.202 73.061C107.033 72.8914 106.695 72.8076 106.188 72.8076C103.571 72.7225 100.277 72.8914 100.277 69.1762C100.277 67.4866 101.375 65.6286 104.331 65.6286H109.988V68.1624H104.752C104.247 68.1624 103.908 68.1624 103.655 68.3307C103.401 68.5842 103.233 68.8376 103.233 69.26C103.233 69.6824 103.486 69.9359 103.824 70.1054C104.162 70.1893 104.5 70.2738 104.923 70.2738H106.442C108.046 70.2738 109.06 70.6111 109.736 71.2031C110.242 71.7938 110.58 72.5547 110.58 73.7368ZM98.6722 71.2031C97.9964 70.6111 96.9826 70.2738 95.3781 70.2738H93.8587C93.4369 70.2738 93.0984 70.1887 92.7611 70.1054C92.4226 69.9359 92.1703 69.6824 92.1703 69.26C92.1703 68.8376 92.2542 68.5842 92.5921 68.3307C92.8456 68.1624 93.1829 68.1624 93.6898 68.1624H98.9257V65.6286H93.268C90.2273 65.6286 89.2136 67.4866 89.2136 69.1762C89.2136 72.8908 92.5077 72.7225 95.1259 72.8076C95.6316 72.8076 95.9701 72.8914 96.1385 73.061C96.3068 73.2293 96.477 73.5667 96.477 73.9052C96.477 74.2425 96.3074 74.4959 96.1385 74.6655C95.885 74.8339 95.5477 74.9177 95.0408 74.9177H89.5515V77.4515H95.0408C97.9113 77.4515 99.5164 76.27 99.5164 73.7368C99.5164 72.5547 99.1791 71.7938 98.6722 71.2031ZM87.8625 75.0034H81.1923V72.6386H87.6941V70.275H81.1923V68.0785H87.8625V65.6298H78.405V77.4521H87.8625V75.0034ZM75.3644 66.2212C74.4351 65.7143 73.3375 65.6292 71.9019 65.6292H65.4V77.4515H68.2705V73.1449H71.3112C72.3237 73.1449 72.9157 73.23 73.3381 73.6517C73.845 74.2425 73.845 75.2563 73.845 76.0166V77.4515H76.631V75.1712C76.631 74.0735 76.5471 73.5667 76.2092 72.9759C75.9557 72.6374 75.4501 72.2156 74.7742 71.9622C75.5333 71.7099 76.8011 70.6962 76.8011 68.8376C76.8005 67.4872 76.2936 66.7268 75.3644 66.2212ZM59.3193 65.6292H50.283L46.6516 69.5141L43.1892 65.6292H31.7887V77.4515H43.0208L46.6522 73.5667L50.1147 77.4515H55.604V73.4834H59.151C61.5997 73.4834 64.0496 72.8076 64.0496 69.5141C64.049 66.3051 61.5152 65.6292 59.3193 65.6292ZM73.084 70.5278C72.6622 70.6962 72.2398 70.6962 71.733 70.6962L68.2705 70.7813V68.0779H71.733C72.2398 68.0779 72.7467 68.0779 73.084 68.3314C73.4226 68.5009 73.6748 68.8382 73.6748 69.3451C73.6748 69.852 73.4226 70.2744 73.084 70.5278ZM59.3193 71.1186H55.6034V68.0779H59.3193C60.3331 68.0779 61.0083 68.5009 61.0083 69.5141C61.0083 70.5278 60.3325 71.1186 59.3193 71.1186ZM48.4251 71.5404L52.8162 66.8964V76.439L48.4251 71.5404ZM41.5847 75.0034H34.5753V72.6386H40.8244V70.275H34.5753V68.0785H41.6692L44.7937 71.541L41.5847 75.0034ZM102.725 57.0998H98.6722L93.3518 48.2325V57.0998H87.6103L86.5114 54.4816H80.6003L79.5027 57.0998H76.2086C74.8575 57.0998 73.084 56.7619 72.0715 55.7481C71.1422 54.735 70.6353 53.3839 70.6353 51.2725C70.6353 49.4991 70.8888 47.8946 72.1548 46.628C72.9989 45.6987 74.5196 45.2769 76.4614 45.2769H79.1635V47.8107H76.4614C75.4489 47.8107 74.8569 47.9797 74.2661 48.4865C73.7593 48.9934 73.5058 49.9221 73.5058 51.1887C73.5058 52.4553 73.7593 53.3845 74.2661 53.9759C74.6879 54.3977 75.4489 54.5666 76.2079 54.5666H77.4751L81.5283 45.2775H85.7511L90.4801 56.4246V45.2769H94.8719L99.8543 53.4684V45.2769H102.725V57.0998H102.725ZM69.1998 45.2769H66.3293V57.0998H69.1998V45.2769ZM63.2036 45.7838C62.2743 45.2769 61.2617 45.2769 59.8262 45.2769H53.3231V57.0998H56.1097V52.7926H59.1497C60.1635 52.7926 60.8393 52.877 61.2611 53.2994C61.768 53.8908 61.6829 54.9046 61.6829 55.5798V57.0998H64.5534V54.735C64.5534 53.7218 64.4695 53.215 64.0477 52.6236C63.7943 52.2857 63.2874 51.8633 62.6967 51.6105C63.4558 51.2725 64.7236 50.3439 64.7236 48.4859C64.7242 47.1349 64.1322 46.3745 63.2036 45.7838ZM51.2962 54.6511H44.7092V52.2863H51.2117V49.8376H44.7092V47.7262H51.2962V45.2775H41.8381V57.1004H51.2962V54.6511ZM39.7267 45.2769H35.0822L31.6197 53.2994L27.9038 45.2769H23.3438V56.424L18.5302 45.2769H14.3081L9.24113 57.0998H12.2812L13.3788 54.4816H19.2899L20.3876 57.0998H26.1304V47.8107L30.268 57.0998H32.7167L36.855 47.8107V57.0998H39.7261V45.2769H39.7267ZM85.4989 51.9484L83.5558 47.3038L81.614 51.9484H85.4989ZM61.0083 50.091C60.5865 50.3445 60.1641 50.3445 59.5728 50.3445H56.1097V47.7268H59.5721C60.079 47.7268 60.6692 47.7268 61.0077 47.8958C61.345 48.1492 61.5146 48.4872 61.5146 48.9934C61.5146 49.4997 61.3456 49.9215 61.0083 50.091ZM14.392 51.9484L16.3344 47.3038L18.2768 51.9484H14.392ZM109.904 8.20374H9.15604V50.7663L12.6185 42.9127H19.9652L20.9789 44.8551V42.9127H29.5928L31.5352 47.1349L33.3932 42.9127H60.8393C62.1053 42.9127 63.2029 43.1661 64.0484 43.8414V42.9127H71.564V43.8414C72.83 43.1655 74.4345 42.9127 76.293 42.9127H87.1866L88.2004 44.8551V42.9127H96.2229L97.4057 44.8551V42.9127H105.259V59.4646H97.3212L95.8018 56.9315V59.4646H85.9207L84.8231 56.7625H82.3731L81.2755 59.4646H76.1247C74.0978 59.4646 72.5771 58.9578 71.5646 58.4515V59.4646H59.3193V55.6643C59.3193 55.1574 59.2348 55.0729 58.8969 55.0729H58.4751V59.464H34.8287V57.3526L33.9845 59.464H29.0021L28.1579 57.4371V59.464H18.6147L17.6016 56.7619H15.1523L14.0546 59.464H9.15604V109.374H109.904V79.056C108.807 79.5629 107.286 79.8163 105.766 79.8163H98.4188V78.8026C97.5746 79.479 96.054 79.8163 94.619 79.8163H71.4795V76.0166C71.4795 75.5097 71.3957 75.5097 70.9726 75.5097H70.5509V79.8163H62.9501V75.3407C61.6841 75.9315 60.248 75.9315 58.9814 75.9315H58.1366V79.8163H48.8475L46.6522 77.2825L44.2035 79.8163H29.2549V63.265H44.4558L46.6516 65.7976L49.0164 63.265H59.2348C60.4163 63.265 62.3594 63.4334 63.2036 64.2775V63.265H72.3237C73.253 63.265 75.0271 63.4334 76.2086 64.2775V63.265H89.9739V64.2782C90.7342 63.6023 92.1703 63.2656 93.4363 63.2656H101.121V64.2782C101.966 63.6874 103.148 63.2656 104.668 63.2656H109.904V8.20374Z" fill="#0077A6"/>
</svg>
