<svg width="110" height="66" viewBox="0 0 120 76" fill="none" xmlns="http://www.w3.org/2000/svg">
<g clip-path="url(#clip0_3504_792)">
<path d="M78.1136 0.500004C71.1101 0.496684 64.2649 2.57168 58.4535 6.45956C58.0534 6.73159 55.2882 8.69628 55.1667 8.792C50.5733 12.2277 47.489 12.8221 43.2653 11.7693C43.007 11.7038 41.7966 11.2907 41.4168 11.1446C37.4719 9.66712 33.2281 9.1532 29.042 9.64601C24.856 10.1388 20.85 11.624 17.3608 13.9766C13.8716 16.3293 11.0012 19.4807 8.99067 23.1661C6.98018 26.8514 5.88842 30.963 5.80714 35.1552C5.72586 39.3474 6.65744 43.4978 8.52358 47.2575C10.3897 51.0172 13.1359 54.2764 16.5313 56.7611C19.9267 59.2458 23.8721 60.8835 28.036 61.5365C32.1998 62.1895 36.4604 61.8387 40.4596 60.5137C46.7598 58.6397 50.1782 59.1535 54.1336 61.9293C54.9236 62.4834 56.8278 63.6975 57.2229 63.9846C61.7246 67.2706 66.9452 69.4486 72.4567 70.34C77.9681 71.2314 83.6134 70.8108 88.9299 69.1127C94.2463 67.4146 99.0825 64.4874 103.042 60.571C107.001 56.6546 109.971 51.8605 111.708 46.5818C113.446 41.3031 113.9 35.69 113.035 30.2028C112.17 24.7156 110.01 19.5103 106.732 15.0139C103.454 10.5175 99.1514 6.8578 94.1768 4.33494C89.2022 1.81208 83.6974 0.497855 78.1136 0.500004Z" fill="#007858"/>
<path d="M65.3664 41.0835C64.3605 42.0682 63.0489 42.685 61.6454 42.8332C60.242 42.9814 58.8294 42.6523 57.6381 41.8996L55.2933 45.6023C57.3248 46.8793 59.7303 47.4368 62.1201 47.1844C64.5098 46.9321 66.744 45.8847 68.4608 44.2119L65.3664 41.0835ZM61.1427 26.0007C59.206 25.9701 57.2975 26.4642 55.6215 27.43C53.9455 28.3958 52.5652 29.7969 51.6286 31.4833C50.6919 33.1698 50.2341 35.0779 50.3043 37.0033C50.3744 38.9287 50.9698 40.7989 52.0267 42.4134L71.3627 34.192C70.8186 31.89 69.5179 29.8343 67.6667 28.3506C65.8156 26.8669 63.5197 26.04 61.1427 26.0007ZM54.7362 37.275C54.59 35.9445 54.8776 34.6025 55.5566 33.447C56.2356 32.2915 57.27 31.3837 58.5072 30.8575C59.7444 30.3314 61.1189 30.2148 62.4278 30.5249C63.7367 30.835 64.9107 31.5555 65.7766 32.5799L54.7362 37.275ZM77.4349 21.22V41.7182L81.0104 43.1943L79.324 47.2244L75.7789 45.7635C75.065 45.4596 74.4585 44.951 74.0367 44.3025C73.5656 43.5477 73.3279 42.6718 73.353 41.7837V21.22H77.4349ZM46.2989 21.22V41.7182L49.8439 43.1943L48.1575 47.2244L44.6124 45.7635C43.9225 45.4573 43.3366 44.9585 42.9259 44.3277C42.4531 43.5734 42.2136 42.6975 42.2372 41.8089V21.22H46.2989Z" fill="white"/>
<path d="M95.0288 30.9829C95.7718 31.3393 96.4369 31.8379 96.9862 32.4501C97.5354 33.0623 97.958 33.7762 98.2299 34.5509C98.5017 35.3256 98.6174 36.146 98.5704 36.9652C98.5235 37.7844 98.3147 38.5863 97.956 39.3253L101.911 41.2144C102.982 38.9933 103.243 36.4711 102.65 34.0796C102.057 31.6881 100.647 29.5761 98.6602 28.1051C96.674 26.6342 94.2355 25.8958 91.7622 26.0164C89.2888 26.137 86.9346 27.1092 85.1025 28.7663L88.0602 31.9955C88.9866 31.1526 90.1459 30.6055 91.3882 30.425C92.6305 30.2445 93.8987 30.4388 95.0288 30.9829Z" fill="#C7D540"/>
<path d="M89.5846 42.2521C88.0833 41.5329 86.9302 40.2505 86.3785 38.6864C85.8268 37.1223 85.9217 35.4044 86.6422 33.9098L82.6868 32.0156C81.6268 34.2338 81.3725 36.7488 81.9672 39.1326C82.5619 41.5163 83.9688 43.6213 85.9484 45.0891C87.928 46.5569 90.3579 47.2968 92.8244 47.1827C95.2908 47.0687 97.6412 46.1078 99.4754 44.4637L96.5178 41.2396C95.5938 42.074 94.441 42.6159 93.2062 42.7962C91.9715 42.9765 90.7107 42.7871 89.5846 42.2521ZM38.1959 42.5494V36.615C38.1959 34.5226 37.5721 32.4773 36.4035 30.7376C35.2349 28.9978 33.5739 27.6419 31.6305 26.8412C29.6872 26.0405 27.5488 25.831 25.4857 26.2392C23.4227 26.6474 21.5277 27.6549 20.0403 29.1344C18.5529 30.614 17.54 32.499 17.1297 34.5511C16.7193 36.6032 16.9299 38.7304 17.7349 40.6634C18.5398 42.5965 19.903 44.2487 21.6519 45.4112C23.4009 46.5736 25.4571 47.1941 27.5606 47.1941C29.2094 47.1943 30.8357 46.8131 32.311 46.0808L30.5992 42.101C29.6408 42.6282 28.5607 42.8973 27.4656 42.8817C26.3706 42.8661 25.2986 42.5664 24.3557 42.0122C23.4128 41.458 22.6318 40.6686 22.0898 39.722C21.5478 38.7753 21.2637 37.7044 21.2655 36.615C21.2598 35.5916 21.5086 34.5826 21.9897 33.678C22.4132 32.8886 23.0015 32.1984 23.7151 31.6536C24.4287 31.1088 25.2512 30.7221 26.1274 30.5194C26.592 30.4099 27.0679 30.3542 27.5454 30.3532C29.2168 30.3518 30.8203 31.0106 32.0035 32.1848C33.1868 33.359 33.853 34.9525 33.8557 36.615V42.499C33.8305 43.3871 34.0683 44.263 34.5394 45.0178C34.9641 45.6636 35.5698 46.1715 36.2815 46.4787L38.2769 47.2646L39.9684 43.2345L38.1959 42.5494Z" fill="white"/>
</g>
<defs>
<clipPath id="clip0_3504_792">
<rect width="119" height="75" fill="white" transform="translate(0.5 0.5)"/>
</clipPath>
</defs>
</svg>
