<svg width="119" height="66" viewBox="0 0 129 62" fill="none" xmlns="http://www.w3.org/2000/svg">
<path d="M26.8826 19.1861C28.1141 18.772 29.4278 18.5511 30.7907 18.5511C36.757 18.5511 41.738 22.825 42.8765 28.507L51.3333 26.7676C49.3956 17.1154 40.9334 9.84863 30.7907 9.84863C28.4644 9.84863 26.2367 10.2296 24.1458 10.9364L26.8826 19.1861Z" fill="#FFCB05"/>
<path d="M16.904 46.8283L22.6239 40.307C20.0732 38.0265 18.4639 34.6968 18.4639 30.9861C18.4639 27.2809 20.0732 23.9513 22.6239 21.6763L16.904 15.1494C12.5688 19.0258 9.83203 24.6857 9.83203 30.9861C9.83203 37.2921 12.5688 42.952 16.904 46.8283Z" fill="#00A4E0"/>
<path d="M42.8765 33.4822C41.7325 39.1587 36.757 43.4271 30.7962 43.4271C29.4278 43.4271 28.1087 43.2062 26.8826 42.7865L24.1458 51.0472C26.2367 51.7485 28.4699 52.1295 30.7962 52.1295C40.9279 52.1295 49.3847 44.8738 51.3333 35.2326L42.8765 33.4822Z" fill="#EF4123"/>
<path d="M58.7281 40.5778C58.4489 40.125 58.0767 39.4016 57.8468 38.866C56.5058 35.7296 56.4456 32.4827 57.5732 29.3684C58.8157 25.9504 61.1912 23.3385 64.2619 22.0022C68.1208 20.3291 72.3848 20.6549 76.085 22.8692C78.4332 24.2275 80.0971 26.3259 81.3616 29.2966C81.5203 29.6776 81.6626 30.0807 81.8049 30.4286L58.7281 40.5778ZM66.435 27.0437C63.6927 28.2309 62.2805 30.8262 62.5761 33.8632L74.1802 28.8217C72.1823 26.4584 69.5878 25.6743 66.435 27.0437ZM75.6252 38.0101C75.6197 38.0101 75.6197 38.0156 75.6197 38.0156L75.3789 37.85C74.6837 38.982 73.6054 39.9041 72.2425 40.5005C69.648 41.638 67.2451 41.3453 65.5154 39.8158L65.3567 40.0587C65.3567 40.0587 65.3567 40.0532 65.3512 40.0532L62.4064 44.4983C63.1398 45.0118 63.9226 45.4425 64.7436 45.7904C67.9949 47.1543 71.3229 47.0881 74.6016 45.6524C76.9717 44.6143 78.8327 43.035 80.1026 41.0306L75.6252 38.0101ZM89.8676 15.4644V40.1692L93.6772 41.7263L91.5151 46.8175L87.3114 45.0505C86.3699 44.6363 85.724 44.0069 85.2424 43.2945C84.7771 42.5712 84.4323 41.5717 84.4323 40.2354V15.4644H89.8676ZM99.7311 33.8798C99.7311 31.7759 100.656 29.8875 102.112 28.6064L98.2039 24.211C95.5547 26.5743 93.8852 30.0255 93.8852 33.8687C93.8797 37.7175 95.5492 41.1741 98.193 43.5375L102.096 39.1421C100.645 37.8555 99.7311 35.9781 99.7311 33.8798ZM106.672 40.887C105.905 40.887 105.161 40.7545 104.471 40.5226L102.605 46.1162C103.88 46.5469 105.243 46.7844 106.666 46.7844C112.851 46.7899 118.013 42.3613 119.212 36.4806L113.475 35.2989C112.824 38.496 110.027 40.8925 106.672 40.887ZM106.688 20.9752C105.27 20.9752 103.907 21.2071 102.632 21.6323L104.482 27.2314C105.177 26.9995 105.916 26.8725 106.683 26.8725C110.043 26.878 112.846 29.2856 113.481 32.4883L119.217 31.3176C118.04 25.4258 112.879 20.9807 106.688 20.9752Z" fill="white"/>
</svg>
