<svg width="107" height="66" viewBox="0 0 117 52" fill="none" xmlns="http://www.w3.org/2000/svg">
<g clip-path="url(#clip0_3504_802)">
<path d="M32.3497 0.5H20.3299C15.0187 0.753684 10.6774 2.91472 9.42387 7.3711C8.77024 9.6952 8.41053 12.2477 7.89943 14.6569C5.30109 26.9069 2.99713 39.4945 0.511719 51.5H94.0904C101.325 51.5 106.293 49.9556 107.635 44.1547C108.258 41.46 108.856 38.4082 109.452 35.4477C111.778 23.9047 114.106 12.3624 116.488 0.5H32.3497Z" fill="#822124"/>
<path d="M31.4113 18.6254C31.914 18.2756 32.5614 16.6825 31.8218 16.0191C31.5875 15.8092 31.1957 15.7482 30.6491 15.8416C30.1421 15.9281 29.8504 16.1022 29.6524 16.3747C29.3341 16.8129 29.042 18.1346 29.5351 18.6257C30.0155 19.1036 31.0914 18.8479 31.4113 18.6254ZM24.2581 16.0191C23.8979 18.38 23.4922 20.6949 23.0854 23.0087C20.4734 23.0365 17.8065 23.1389 15.2872 22.9494C15.763 20.6857 16.1043 18.286 16.5771 16.0191H13.7627C12.7553 21.7934 11.8388 27.6599 10.7139 33.3155H13.587C14.0375 30.4145 14.4592 27.4837 15.0527 24.7265C17.5024 24.6656 20.4383 24.5593 22.7924 24.7859C22.307 27.6523 21.7205 30.4159 21.2679 33.3155H24.1411C25.0645 27.4559 26.0368 21.6464 27.1902 16.0191H24.2581ZM64.8909 20.9949C62.6555 20.0827 60.8979 21.6241 60.0831 23.068C60.268 22.4257 60.344 21.6733 60.4938 20.9949H58.2657C57.7209 25.2624 56.9181 29.2689 56.155 33.3155H58.6764C59.0297 30.9136 59.1822 27.6758 59.9661 25.3781C60.5926 23.5421 62.2323 21.9779 64.5981 22.8311C64.6309 22.1538 64.8228 21.6368 64.8909 20.9949ZM66.2979 30.4132C66.0654 29.8064 66.0056 28.805 66.0636 28.0435C66.1938 26.3321 66.8113 24.2484 67.764 23.3049C69.0788 22.0029 71.6744 22.2184 73.7448 22.9496C73.8088 22.2447 73.949 21.6158 74.038 20.9357C70.6426 20.3755 67.4207 20.7242 65.7123 22.5351C64.0397 24.3079 62.9437 28.3825 63.7184 30.9463C64.6255 33.9463 68.6929 34.1094 71.9859 32.9603C72.1316 32.3573 72.2087 31.685 72.3376 31.065C70.5379 32.0091 67.0977 32.4999 66.2979 30.4132ZM94.618 21.054C92.3896 19.9284 90.5343 21.8171 89.8102 22.9494C90.0164 22.3684 90.0283 21.5903 90.2204 20.9946H87.9925C87.3917 25.2252 86.6677 29.331 85.8233 33.3152H88.4032C88.4193 31.6823 88.7369 30.4743 88.9892 28.8731C89.5283 25.4535 90.3201 21.7037 94.2667 22.8309C94.3971 22.2527 94.4515 21.5968 94.618 21.054ZM28.8314 20.9949C28.7631 21.0047 28.7676 21.0885 28.7727 21.1724C28.2172 25.3696 27.4652 29.3687 26.662 33.3152H29.1831C29.7889 29.0898 30.4829 24.9538 31.3525 20.9946L28.8314 20.9949ZM50.9947 20.758C49.173 20.8999 47.6331 21.4293 46.5387 22.5942C45.1964 24.0227 44.1095 27.1813 44.428 30.0578C44.8824 34.1614 49.94 34.014 53.9851 33.0195C54.0541 32.2991 54.2267 31.6834 54.3369 31.0054C52.6706 31.6353 49.7772 32.5146 48.0629 31.4203C46.7688 30.5935 46.7613 28.5007 47.1834 26.6815C49.9022 26.5941 52.728 26.6106 55.4506 26.6815C55.6232 25.3921 56.1174 23.9864 55.6851 22.7129C55.115 21.0317 53.0729 20.596 50.9947 20.758ZM53.3986 25.2597H47.4764C47.664 23.8843 48.8888 22.3725 50.8188 22.298C52.6351 22.2279 53.9355 22.9717 53.3986 25.2597ZM41.4376 20.9949C39.3037 20.185 36.7031 21.1517 35.5755 22.0712C35.5796 22.1117 35.5486 22.1172 35.5154 22.1202C35.5345 22.1039 35.5555 22.0876 35.5755 22.0712C35.5753 22.0678 35.5749 22.0645 35.5744 22.0611C35.5933 21.6658 35.731 21.3902 35.7501 20.9949H33.5807C32.6766 27.0711 31.6046 32.9774 30.4733 38.8241H32.9945C33.3594 36.5471 33.6003 34.1448 34.1087 32.0123C34.6844 34.2552 38.4441 33.8267 40.0307 32.9601C43.3038 31.1717 45.8286 22.6609 41.4376 20.9949ZM39.4442 31.0054C38.0953 32.4486 34.7791 32.427 34.5189 29.9982C34.4058 28.9416 34.7953 27.8338 34.9883 26.7406C35.183 25.6341 35.3235 24.5724 35.5156 23.6012C36.8443 21.9622 40.7485 21.7642 41.1446 24.4896C41.4882 26.8558 40.5611 29.8101 39.4442 31.0054ZM103.999 15.6638C103.783 17.5778 103.494 19.4185 103.12 21.1724C96.9354 19.1947 93.1427 23.7916 93.211 29.4653C93.2244 30.5626 93.4113 31.6508 94.0902 32.427C95.2613 33.7642 98.613 34.0846 100.306 32.9599C100.633 32.7423 100.968 32.3463 101.185 32.0716C101.348 31.8649 101.607 31.3232 101.654 31.4792C101.565 32.0802 101.432 32.6372 101.42 33.3152H103.707C104.148 26.9287 105.51 21.4739 106.521 15.6636H103.999V15.6638H103.999ZM98.3706 31.953C96.6733 31.9898 95.8294 30.9286 95.7904 29.1691C95.7228 26.0876 97.0608 22.6642 99.7777 22.3571C101.043 22.2143 101.959 22.5114 102.885 22.8311C102.034 26.2926 102.341 31.867 98.3706 31.953ZM76.6175 20.9949C76.4934 21.6986 76.3028 22.3355 76.1485 23.0087C77.6363 22.6317 82.269 21.4762 82.7154 23.4825C82.8637 24.149 82.608 24.8572 82.4222 25.3781C78.2332 24.9772 74.8187 25.6803 73.9203 28.6951C73.3188 30.7144 73.9877 32.7016 75.269 33.2563C77.7367 34.3244 80.7382 33.1009 81.7772 31.4203C81.6693 32.002 81.5671 32.5901 81.6017 33.3155H83.7709C83.7941 31.2165 84.0965 29.5176 84.4159 27.6288C84.6882 26.0205 85.2006 24.4282 85.1196 23.0087C84.9329 19.7577 79.6017 20.9077 76.6175 20.9949ZM80.7218 30.946C79.4225 32.231 75.7753 32.596 76.1485 29.5245C76.4581 26.9733 79.2078 26.4312 82.1873 26.7995C81.966 28.1951 81.7119 29.967 80.7218 30.946Z" fill="white"/>
</g>
<defs>
<clipPath id="clip0_3504_802">
<rect width="116" height="51" fill="white" transform="translate(0.5 0.5)"/>
</clipPath>
</defs>
</svg>
