<svg width="39" height="52" viewBox="0 0 49 62" fill="none" xmlns="http://www.w3.org/2000/svg">
<path fill-rule="evenodd" clip-rule="evenodd" d="M4.11548 42.1367L4.10557 42.1501L4.09598 42.1636C3.56093 42.9212 2.36237 43.1438 1.42506 42.4818C0.674743 41.9519 0.449189 40.7711 1.08811 39.8379C2.04141 38.6227 2.73374 37.202 3.18847 35.8133C3.66187 34.3674 3.88205 32.7245 3.87347 31.1132C3.86489 29.5018 3.62723 27.8613 3.13845 26.4206C2.66896 25.0367 1.96154 23.6235 0.995352 22.4186C0.34653 21.4922 0.559496 20.3091 1.30413 19.7712C2.23433 19.0993 3.43519 19.3091 3.97828 20.0609L3.98802 20.0744L3.99807 20.0877C5.20064 21.6734 6.18698 23.4353 6.77642 25.1638C7.39686 27.1973 7.79208 29.1642 7.80235 31.0922C7.81315 33.1211 7.61928 35.0414 6.87477 36.9319C6.06393 38.9907 5.27874 40.5684 4.11548 42.1367ZM12.8104 45.9024L12.8339 45.8691L12.8554 45.8346C15.5208 41.5642 17.0581 36.4113 17.0296 31.0431C17.001 25.6762 15.4096 20.5412 12.7002 16.3001C12.113 15.3689 12.3768 14.268 13.3665 13.5531C14.0312 13.073 15.279 13.243 16.0194 14.2352C19.0784 19.0887 20.9261 24.9557 20.9584 31.0222C20.9918 37.2957 19.2081 42.9724 16.1981 47.8613C15.5018 48.8196 14.4359 49.0882 13.5167 48.545C12.5201 47.8148 12.338 46.5713 12.8104 45.9024ZM28.4131 7.85579L28.4394 7.90765L28.4698 7.9572C32.6149 14.7151 34.9184 22.5102 34.9633 30.9476C35.0082 39.3811 32.7899 47.197 28.7206 53.9965C28.0968 54.9996 27.0435 55.2824 25.9757 54.7854C25.0039 54.1521 24.7428 53.1025 25.2504 52.0424C28.7112 45.8963 30.8631 38.6538 30.8222 30.9696C30.7815 23.3198 28.7811 16.0888 25.0189 9.94227C24.5099 8.89276 24.7619 7.84751 25.7222 7.20691C26.8808 6.65346 28.0095 7.05912 28.4131 7.85579ZM40.6865 1.4244L40.7044 1.45983L40.7243 1.4942C45.7474 10.1769 48.6985 20.1037 48.7559 30.8742C48.8132 41.6335 45.9738 51.5818 41.0529 60.311C40.4279 61.3026 39.3796 61.5803 38.3168 61.0857C37.3481 60.4544 37.0856 59.4094 37.5868 58.3527C42.3274 50.2618 44.8802 40.8881 44.827 30.8951C44.7737 20.8763 41.8965 11.5388 37.3005 3.52777C36.7247 2.35832 37.1305 1.21296 37.9343 0.80569C39.1141 0.207888 40.2757 0.613686 40.6865 1.4244Z" fill="white"/>
</svg>
