<svg width="107" height="62" viewBox="0 0 117 72" fill="none" xmlns="http://www.w3.org/2000/svg">
<g style="mix-blend-mode:color-dodge">
<path d="M74.186 64.1846H42.8193V7.81445H74.1866L74.186 64.1846Z" fill="#EBA900"/>
</g>
<path d="M116.5 36.0001C116.5 55.7999 100.452 71.8503 80.6544 71.8503C72.6166 71.8621 64.81 69.1614 58.4978 64.1852C66.8373 57.6209 72.1913 47.4354 72.1913 36.0001C72.1913 24.5648 66.8373 14.3794 58.4978 7.81501C64.8098 2.83897 72.6163 0.138275 80.6538 0.14994C100.451 0.14994 116.499 16.2004 116.499 36.0001" fill="#F79E1B"/>
<path d="M44.8077 36.0001C44.8077 24.5654 50.1617 14.3794 58.4989 7.81501C52.1881 2.83882 44.3825 0.138067 36.3458 0.149941C16.5484 0.149941 0.500244 16.2004 0.500244 36.0001C0.500244 55.7999 16.5484 71.8503 36.3458 71.8503C44.3827 71.8623 52.1885 69.1615 58.4995 64.1852C50.1628 57.622 44.8077 47.4354 44.8077 36.0001Z" fill="#EB001B"/>
</svg>
