<svg width="111" height="66" viewBox="0 0 121 120" fill="none" xmlns="http://www.w3.org/2000/svg">
<path fill-rule="evenodd" clip-rule="evenodd" d="M60.5001 86.0188C64.1167 82.7194 67.0039 78.7006 68.9764 74.22C70.9489 69.7395 71.9633 64.8961 71.9544 60.0006C71.9634 55.1051 70.9491 50.2617 68.9766 45.7812C67.004 41.3006 64.1168 37.2818 60.5001 33.9824C54.3157 28.3372 46.1118 24.897 37.1091 24.897C17.8655 24.897 2.2644 40.6132 2.2644 60.0006C2.2644 79.3874 17.8655 95.1043 37.1091 95.1043C46.1118 95.1043 54.3163 91.6641 60.5001 86.0188Z" fill="#3A9BD9"/>
<path fill-rule="evenodd" clip-rule="evenodd" d="M83.8911 24.897C74.8884 24.897 66.6832 28.3372 60.5001 33.9824C59.2391 35.1346 58.0633 36.3768 56.9821 37.6991H64.0156C64.9812 38.8793 65.8692 40.121 66.6739 41.4163H54.3256C53.5823 42.6141 52.9114 43.8554 52.3167 45.1335H68.6797C69.243 46.3432 69.7366 47.5841 70.1583 48.8502H50.8412C50.4362 50.0696 50.0985 51.3103 49.8296 52.5668H71.1706C71.693 55.0102 71.9559 57.502 71.955 60.0006C71.955 63.8978 71.3225 67.6474 70.1589 71.1505H50.8412C51.2614 72.4168 51.754 73.6579 52.3167 74.8677H68.6797C68.0861 76.1459 67.416 77.3872 66.6733 78.5849H54.3256C55.1295 79.8802 56.0167 81.1219 56.9814 82.3022H64.0156C62.9357 83.6251 61.7607 84.8675 60.5001 86.0194C66.6832 91.6647 74.8884 95.1049 83.8911 95.1049C103.134 95.1049 118.736 79.388 118.736 60.0012C118.736 40.6132 103.134 24.897 83.8911 24.897Z" fill="#CC2131"/>
<path fill-rule="evenodd" clip-rule="evenodd" d="M114.096 79.5686C114.096 78.9423 114.6 78.4343 115.222 78.4343C115.843 78.4343 116.347 78.9423 116.347 79.5686C116.347 80.1936 115.843 80.7016 115.222 80.7016C114.923 80.7007 114.636 80.5808 114.424 80.3683C114.213 80.1558 114.095 79.8682 114.096 79.5686ZM115.222 80.429C115.693 80.429 116.076 80.0449 116.076 79.568C116.076 79.0911 115.693 78.7058 115.222 78.7058C114.748 78.7058 114.366 79.0911 114.366 79.568C114.366 80.0449 114.749 80.429 115.222 80.429ZM115.07 80.0654H114.839V79.0681H115.257C115.344 79.0681 115.432 79.0706 115.509 79.1191C115.548 79.1472 115.581 79.1846 115.603 79.228C115.625 79.2714 115.636 79.3195 115.635 79.3681C115.635 79.4802 115.57 79.586 115.464 79.6259L115.646 80.0648H115.39L115.239 79.6707H115.07V80.0654V79.5014H115.198C115.244 79.5014 115.296 79.5039 115.338 79.4808C115.356 79.4681 115.371 79.451 115.382 79.431C115.392 79.411 115.397 79.3887 115.396 79.3663C115.396 79.3463 115.39 79.3267 115.38 79.3092C115.371 79.2916 115.357 79.2767 115.34 79.2654C115.301 79.2411 115.236 79.2474 115.192 79.2474H115.071V80.0654H115.07Z" fill="#CC2131"/>
</svg>
