<svg width="109" height="28" viewBox="0 0 119 38" fill="none" xmlns="http://www.w3.org/2000/svg">
<path d="M42.3987 36.6483L48.3609 1.67163H57.8938L51.9299 36.6483H42.3987ZM86.3284 2.43895C83.5926 1.44795 80.7027 0.950674 77.7931 0.970285C68.3851 0.970285 61.7573 5.70826 61.7002 12.5002C61.6484 17.52 66.4327 20.3199 70.0446 21.9902C73.7511 23.7034 74.9967 24.7955 74.9789 26.3248C74.9557 28.6661 72.0184 29.735 69.2827 29.735C65.4709 29.735 63.4472 29.1998 60.3189 27.9024L59.093 27.3474L57.7564 35.1672C59.9799 36.1416 64.0933 36.9874 68.3618 37.0303C78.3712 37.0303 84.8687 32.3476 84.9436 25.0953C84.9793 21.1211 82.4453 18.0964 76.949 15.6034C73.6209 13.9973 71.5829 12.9088 71.6043 11.2723C71.6043 9.82153 73.33 8.26906 77.0578 8.26906C79.5003 8.21439 81.9273 8.67025 84.1835 9.60746L85.0364 10.0107L86.3284 2.43895V2.43895ZM110.819 1.67163H103.485C101.213 1.67163 99.5125 2.29268 98.5149 4.55903L84.4172 36.4699H94.4515C94.4515 36.4699 96.0577 32.2263 96.4271 31.2948L108.449 31.3091C108.73 32.5154 109.592 36.4699 109.592 36.4699H118.5L110.819 1.67163ZM99.1574 24.1567C99.9443 22.1437 102.951 14.3917 102.951 14.3917C102.894 14.4845 103.733 12.3681 104.213 11.0564L104.857 14.0688C104.857 14.0688 106.681 22.4078 107.061 24.1567H99.1574ZM34.3095 1.67163L25.0086 25.4397L24.0181 20.609C22.2872 15.0413 16.8925 9.00964 10.8608 5.99022L19.3659 36.4699L29.4163 36.4592L44.3724 1.67163H34.2631" fill="url(#paint0_linear_3504_202)"/>
<path d="M15.9111 1.67048H0.623122L0.5 2.39675C12.4456 5.28946 20.3492 12.2777 23.631 20.6721L20.2921 4.61137C19.7157 2.40034 18.0455 1.74006 15.9772 1.66333" fill="url(#paint1_linear_3504_202)"/>
<defs>
<linearGradient id="paint0_linear_3504_202" x1="64.6803" y1="0.969727" x2="64.6803" y2="37.0303" gradientUnits="userSpaceOnUse">
<stop stop-color="white"/>
<stop offset="1" stop-color="white" stop-opacity="0.75"/>
</linearGradient>
<linearGradient id="paint1_linear_3504_202" x1="12.0655" y1="1.66333" x2="12.0655" y2="20.6721" gradientUnits="userSpaceOnUse">
<stop stop-color="white"/>
<stop offset="1" stop-color="white" stop-opacity="0.75"/>
</linearGradient>
</defs>
</svg>
